<?xml version='1.0' encoding='utf-8'?>
<svg xmlns="http://www.w3.org/2000/svg" version="1.1" width="600px" height="976px" viewBox="0 0 600 976"> <g id="layer1"> <g style="fill:url(#grad0); fill-opacity:1.0; stroke-linejoin: miter"> <path d="M114.34444,194.38908Q119.01904,225.88118,158.91528,232.04753Q169.44049,362.76794,205.02222,461.59576Q174.45819,430.1012,132.6825,321.2022L119.26695,274.4315L109.71793,203.0675Q108.04111,191.38148,113.554886,194.4697 M207.60403,463.8272Q209.14609,468.78592,207.45277,464.84998 M441.8241,194.66803L446.99524,198.23929Q447.10767,221.33597,441.8639,247.91055Q435.55286,289.74005,420.22934,328.7192Q377.85852,432.2813,343.35333,467.82462Q387.6797,352.64493,395.0799,234.14613Q435.0036,229.232,441.04654,194.8724 M86.69673,160.12836Q75.5905,159.04788,74.997734,171.3694Q74.48114,209.41089,77.7885,235.25809Q78.75529,277.63452,113.56314,367.14313Q138.69397,422.28125,160.28444,454.3354Q188.25974,498.48676,249.25882,557.32855Q253.78616,612.3925,234.91434,632.41815Q219.54855,656.16394,187.93144,676.6417L183.61101,686.4851L149.30434,692.2806Q147.25793,694.66974,147.25877,697.7757L147.80171,731.9665L397.80075,732.6291L396.19595,692.47595Q393.055,690.63306,367.61508,687.2795L362.9651,677.43243Q321.46307,646.5724,316.4056,632.663Q296.99268,615.82587,302.8883,556.1711Q381.97913,485.93744,425.82288,396.17624Q470.38928,322.44202,481.9292,177.13043Q481.1715,169.48816,471.31326,163.56053L424.13593,164.21437L417.5932,186.02608Q406.6902,200.6268,397.32883,198.75787Q403.6889,177.26266,376.97256,171.88972Q339.68326,162.38467,253.53227,162.82169Q162.00253,169.34671,165.82423,175.63353Q156.88284,180.6785,155.07053,197.82544L145.65205,192.18192Q136.89856,184.14838,136.46292,168.38394Q133.29355,163.96405,130.06345,162.29372L87.27414,160.12997 Z"/> </g> </g> <defs> <linearGradient id="grad0" x1="55.675003" y1="1450.088" x2="470.71576" y2="22.976997"> <stop offset="0.0%" style="stop-color:rgb(255,255,255); stop-opacity:1.0"/> <stop offset="95.67675%" style="stop-color:rgb(249,247,33); stop-opacity:1.0"/> <stop offset="100.0%" style="stop-color:rgb(0,0,0); stop-opacity:1.0"/> </linearGradient> </defs> </svg>